<svg xmlns="http://www.w3.org/2000/svg" viewBox="0 0 100 100">
  <defs>
    <radialGradient id="bodyGrad" cx="50%" cy="40%" r="55%">
      <stop offset="0%" stop-color="#2a2a2a"/>
      <stop offset="100%" stop-color="#000000"/>
    </radialGradient>
    <radialGradient id="bellyGrad" cx="50%" cy="50%" r="50%">
      <stop offset="0%" stop-color="#ffffff"/>
      <stop offset="80%" stop-color="#f1f5f9"/>
      <stop offset="100%" stop-color="#e2e8f0"/>
    </radialGradient>
    <radialGradient id="eyeShine" cx="35%" cy="35%" r="50%">
      <stop offset="0%" stop-color="#ffffff"/>
      <stop offset="100%" stop-color="#cbd5e1"/>
    </radialGradient>
  </defs>
  <ellipse cx="50" cy="58" rx="22" ry="26" fill="url(#bodyGrad)"/>
  <ellipse cx="50" cy="62" rx="15" ry="17" fill="url(#bellyGrad)"/>
  <circle cx="50" cy="32" r="15" fill="#000000"/>
  <ellipse cx="36" cy="52" rx="9" ry="18" fill="#000000"/>
  <ellipse cx="64" cy="52" rx="9" ry="18" fill="#000000"/>
  <circle cx="43" cy="29" r="4.5" fill="url(#eyeShine)"/>
  <circle cx="57" cy="29" r="4.5" fill="url(#eyeShine)"/>
  <circle cx="44" cy="29.5" r="2.2" fill="#000000"/>
  <circle cx="58" cy="29.5" r="2.2" fill="#000000"/>
  <circle cx="42.5" cy="28" r="1" fill="#ffffff" opacity="0.8"/>
  <circle cx="56.5" cy="28" r="1" fill="#ffffff" opacity="0.8"/>
  <polygon points="50,36 45,40 50,43 55,40" fill="#f97316"/>
  <path d="M36,68 Q34,72 30,74 L28,78 Q34,80 40,76 Z" fill="#f97316"/>
  <path d="M64,68 Q66,72 70,74 L72,78 Q66,80 60,76 Z" fill="#f97316"/>
</svg>
